# xmcd
#
# Track frame offsets: 
#        150
#        12595
#        20959
#        32650
#        42286
#        53658
#        70472
#        83872
#        99871
#        110717
#        122288
#        137192
#        152166
#        172369
#        189529
#        202180
#        211208
#
# Disc length: 3001 seconds
#
# Revision: 0
# Processed by: cddbd v1.5.2PL0 Copyright (c) Steve Scherf et al.
# Submitted via: ExactAudioCopy v1.0b1
#
DISCID=f90bb711
DTITLE=Texas Guinness Lovers - Live 2005-12-31 Rudyard's, Houston
DYEAR=2006
DGENRE=Rock
TTITLE0=Nancy Whiskey
TTITLE1=Across the Alley from the Alamo
TTITLE2=Pistol Packin Poppa
TTITLE3=Viper
TTITLE4=Bubbles in my Beer
TTITLE5=Hello Walls
TTITLE6=Honky Tonkin
TTITLE7=Rodney Rings in the New Year
TTITLE8=On a Monday
TTITLE9=Gatloney Rats
TTITLE10=This is How to Live
TTITLE11=Not Far Enuff
TTITLE12=Rank Stranger
TTITLE13=Love Sick Blues
TTITLE14=Way Out There
TTITLE15=San Antonio Rose
TTITLE16=Ring of Fire
EXTD=
EXTT0=
EXTT1=
EXTT2=
EXTT3=
EXTT4=
EXTT5=
EXTT6=
EXTT7=
EXTT8=
EXTT9=
EXTT10=
EXTT11=
EXTT12=
EXTT13=
EXTT14=
EXTT15=
EXTT16=
PLAYORDER=
